<svg width="40" height="40" viewBox="0 0 40 40" fill="none" xmlns="http://www.w3.org/2000/svg">
<path d="M20 0C8.98077 0 0 8.98033 0 19.999C0 31.0177 8.98077 39.998 20 39.998C31.0192 39.998 40 31.0177 40 19.999C40 8.98033 31.0192 0 20 0ZM20 3.07677C24.0192 3.07677 27.6923 4.47094 30.5865 6.80736C29.1154 8.61497 26.4135 11.1245 21.8846 12.7686C19.4231 8.31691 17.3654 5.47089 15.9327 3.58637C17.2308 3.26908 18.5962 3.07677 20 3.07677ZM12.8846 4.66323C14.0865 6.21124 16.2596 9.12456 18.8462 13.682C12.2019 15.4223 6.20192 15.5377 3.70192 15.4608C5.03846 10.6533 8.42308 6.72083 12.8846 4.66323ZM32.7981 8.94187C35.3558 11.9129 36.9231 15.7685 36.9231 19.999C36.9231 20.6336 36.8846 21.249 36.8173 21.8643C36.2596 21.7874 35.8461 21.7201 35.1346 21.6624C32.75 21.4797 29.5962 21.4797 26.1827 21.9893C25.2885 19.6721 24.3077 17.528 23.2981 15.5185C28.0481 13.7013 31.0577 11.0187 32.7981 8.94187ZM20.3077 16.4704C21.2788 18.3741 22.2212 20.4125 23.0962 22.6047C19.0481 23.8065 15.3654 26.5468 12.5385 29.0947C11.0288 30.4408 9.78846 31.7292 8.86538 32.7388C5.31731 29.6332 3.06731 25.0949 3.06731 20.0086C3.06731 19.499 3.10577 19.0183 3.14423 18.5279C5.33654 18.6145 12.3462 18.6818 20.3077 16.4704ZM30.4904 24.643C32.8558 24.5565 34.7212 24.72 36.2019 24.8834C35.0865 28.6428 32.6923 31.8446 29.5288 33.9983C29.0192 30.835 28.2308 27.7967 27.2788 24.9315C28.3846 24.7873 29.4712 24.6911 30.4904 24.643ZM24.2019 25.4891C25.2981 28.6524 26.1635 32.0273 26.6538 35.5656C24.6058 36.4309 22.3654 36.9213 19.9904 36.9213C16.8269 36.9213 13.8942 36.0463 11.3654 34.556C12.2212 33.6426 13.2788 32.5369 14.5865 31.3735C17.3077 28.9313 20.8558 26.441 24.2019 25.4891Z" fill="#070707"/>
<path fill-rule="evenodd" clip-rule="evenodd" d="M35.1346 21.6624C35.3985 21.6838 35.6215 21.7065 35.826 21.7306C36.0778 21.7602 36.3017 21.7918 36.5398 21.8254C36.6296 21.8381 36.7213 21.8511 36.8173 21.8643C36.8536 21.5326 36.8815 21.2009 36.8995 20.8662C36.9149 20.5799 36.9231 20.2915 36.9231 19.999C36.9231 16.1344 35.6152 12.5827 33.4391 9.73232C33.2331 9.46244 33.0193 9.19884 32.7981 8.94187C32.593 9.18655 32.3704 9.43962 32.1293 9.6987C30.4613 11.4916 27.9127 13.572 24.2283 15.1425C23.9259 15.2714 23.6159 15.3969 23.2981 15.5185C23.4473 15.8155 23.5959 16.1155 23.7437 16.4185C24.5957 18.1656 25.4206 20.0146 26.1827 21.9893C29.5962 21.4797 32.75 21.4797 35.1346 21.6624ZM12.0719 33.8098C12.7859 33.0659 13.6176 32.2355 14.5865 31.3735C17.3077 28.9313 20.8558 26.441 24.2019 25.4891C25.2981 28.6524 26.1635 32.0273 26.6538 35.5656C24.6058 36.4309 22.3654 36.9213 19.9904 36.9213C17.1972 36.9213 14.584 36.2392 12.2698 35.0537C11.963 34.8965 11.6614 34.7305 11.3654 34.556C11.5871 34.3194 11.8223 34.0699 12.0719 33.8098ZM29.9314 7.56372C28.3628 9.26845 25.8099 11.3436 21.8846 12.7686C19.777 8.95689 17.9654 6.32237 16.5887 4.46066C16.3575 4.14808 16.1387 3.85729 15.9327 3.58637C16.2876 3.49962 16.6475 3.42221 17.0119 3.35553C17.9802 3.1783 18.98 3.07677 20 3.07677C23.6589 3.07677 27.031 4.2322 29.7898 6.2021C30.0614 6.39604 30.327 6.59787 30.5864 6.80727C30.3904 7.04812 30.1725 7.30166 29.9314 7.56372ZM12.8846 4.66323C8.73406 6.57741 5.51553 10.1142 4.01093 14.4686C3.8982 14.7949 3.79508 15.1257 3.70192 15.4608C3.99919 15.4699 4.34594 15.4764 4.73738 15.4777C7.47074 15.4867 12.383 15.2458 17.8393 13.9348C18.173 13.8546 18.5087 13.7704 18.8462 13.682C18.6718 13.3749 18.4994 13.0752 18.329 12.783C15.9711 8.7381 14.0055 6.10692 12.8846 4.66323ZM8.13232 32.0586C5.01027 28.9884 3.06731 24.7352 3.06731 20.0086C3.06731 19.5083 3.10438 19.0358 3.14213 18.5547L3.14423 18.5279C5.33654 18.6145 12.3462 18.6818 20.3077 16.4704C21.1401 18.1021 21.9513 19.8327 22.7171 21.6743C22.8447 21.9813 22.9711 22.2914 23.0962 22.6047C22.7765 22.6996 22.4591 22.8041 22.1442 22.9173C18.4718 24.2381 15.1421 26.748 12.5385 29.0947C11.0288 30.4408 9.78846 31.7292 8.86538 32.7388C8.67778 32.5746 8.49381 32.4064 8.31361 32.2343C8.25275 32.1762 8.19231 32.1176 8.13232 32.0586ZM28.2926 24.812C29.0468 24.7326 29.7847 24.6763 30.4904 24.643C32.3453 24.5752 33.8927 24.661 35.1883 24.7801C35.5449 24.8129 35.8823 24.8481 36.2019 24.8834C36.1046 25.2114 35.9975 25.5352 35.8811 25.8544C34.7932 28.8364 32.8851 31.4195 30.4329 33.338C30.1392 33.5678 29.8377 33.7881 29.5288 33.9983C29.47 33.6333 29.4075 33.2698 29.3414 32.9082C28.8991 30.4866 28.2982 28.143 27.592 25.8995C27.4898 25.5747 27.3853 25.252 27.2788 24.9315C27.619 24.8871 27.9574 24.8473 28.2926 24.812ZM0 19.999C0 8.98033 8.98077 0 20 0C31.0192 0 40 8.98033 40 19.999C40 31.0177 31.0192 39.998 20 39.998C8.98077 39.998 0 31.0177 0 19.999Z" fill="#070707"/>
</svg>
