<svg width="40" height="40" viewBox="0 0 40 40" fill="none" xmlns="http://www.w3.org/2000/svg">
<mask id="path-1-inside-1_10122_120" fill="white">
<path d="M31.0202 28.7139C29.5886 28.7139 28.1671 28.7139 26.7236 28.7139C26.7236 28.6454 26.7236 28.5814 26.7236 28.5175C26.7236 26.2089 26.7233 23.9004 26.7239 21.5922C26.7239 21.1009 26.6872 20.6156 26.5628 20.1364C26.0492 18.1601 23.831 18.2756 22.9486 19.2122C22.5051 19.6829 22.2154 20.2149 22.2031 20.8723C22.2004 21.0288 22.1912 21.1855 22.1912 21.3419C22.1903 23.731 22.1906 26.1204 22.1906 28.5096C22.1906 28.5741 22.1906 28.6387 22.1906 28.7127C20.7532 28.7127 19.332 28.7127 17.9017 28.7127C17.9017 24.3069 17.9017 19.9057 17.9017 15.4963C19.3296 15.4963 20.7507 15.4963 22.1884 15.4963C22.1884 16.0932 22.1884 16.6812 22.1884 17.2692C22.1998 17.2741 22.2111 17.2793 22.2227 17.2841C22.2534 17.2429 22.2846 17.2023 22.3149 17.1607C22.7447 16.5685 23.2384 16.0435 23.8944 15.6885C24.6271 15.2917 25.4185 15.1587 26.2421 15.1823C27.134 15.2081 27.9803 15.4072 28.7429 15.8834C29.7206 16.4939 30.3163 17.3872 30.6652 18.4587C30.9372 19.2937 31.0263 20.1552 31.0272 21.0275C31.0294 23.5379 31.0281 26.0486 31.0278 28.559C31.0278 28.6081 31.0232 28.6572 31.0202 28.7139Z"/>
<path d="M15.2811 28.7207C13.8545 28.7207 12.4416 28.7207 11.0152 28.7207C11.0152 24.3125 11.0152 19.9067 11.0152 15.4922C12.4336 15.4922 13.8505 15.4922 15.2811 15.4922C15.2811 19.8964 15.2811 24.3019 15.2811 28.7207Z"/>
<path fill-rule="evenodd" clip-rule="evenodd" d="M15.2505 28.6901V15.5228H11.0458V28.6901H15.2505ZM15.2811 28.7207V15.4922H11.0152V28.7207H15.2811Z"/>
<path d="M13.3309 8.91407C14.6739 8.91225 15.6243 9.86008 15.6289 11.2059C15.6332 12.5375 14.6684 13.4799 13.2993 13.4805C11.963 13.4814 11.0101 12.5332 11.0077 11.2008C11.0052 9.86736 11.9719 8.91588 13.3309 8.91407Z"/>
<path fill-rule="evenodd" clip-rule="evenodd" d="M14.9602 9.57629C14.5604 9.17755 13.995 8.94377 13.3309 8.94467C11.9883 8.94647 11.0359 9.88476 11.0383 11.2007C11.0407 12.5162 11.9798 13.4508 13.2993 13.4499C13.9767 13.4496 14.5522 13.2164 14.9577 12.8204C15.3632 12.4245 15.6004 11.8641 15.5983 11.206C15.596 10.5405 15.36 9.97504 14.9602 9.57629ZM15.6289 11.2059C15.6243 9.86008 14.6739 8.91225 13.3309 8.91407C11.9719 8.91588 11.0052 9.86736 11.0077 11.2008C11.0101 12.5332 11.963 13.4814 13.2993 13.4805C14.6684 13.4799 15.6332 12.5375 15.6289 11.2059Z"/>
<path d="M11.6154 0.00961026C5.22115 0.00961026 0 5.22925 0 11.6216V28.4052C0 34.788 5.22115 39.998 11.6154 39.998H28.4038C34.7885 39.998 40 34.7784 40 28.386V11.612C40 5.21964 34.7885 0 28.3942 0H11.6154V0.00961026ZM11.6154 3.08565H28.3942C33.125 3.08565 36.9231 6.88262 36.9231 11.6216V28.3956C36.9231 33.1346 33.125 36.9316 28.4038 36.9316H11.6154C6.875 36.9316 3.07692 33.1346 3.07692 28.4149V11.6312C3.08654 6.88262 6.88462 3.08565 11.6154 3.08565Z"/>
</mask>
<path d="M31.0202 28.7139C29.5886 28.7139 28.1671 28.7139 26.7236 28.7139C26.7236 28.6454 26.7236 28.5814 26.7236 28.5175C26.7236 26.2089 26.7233 23.9004 26.7239 21.5922C26.7239 21.1009 26.6872 20.6156 26.5628 20.1364C26.0492 18.1601 23.831 18.2756 22.9486 19.2122C22.5051 19.6829 22.2154 20.2149 22.2031 20.8723C22.2004 21.0288 22.1912 21.1855 22.1912 21.3419C22.1903 23.731 22.1906 26.1204 22.1906 28.5096C22.1906 28.5741 22.1906 28.6387 22.1906 28.7127C20.7532 28.7127 19.332 28.7127 17.9017 28.7127C17.9017 24.3069 17.9017 19.9057 17.9017 15.4963C19.3296 15.4963 20.7507 15.4963 22.1884 15.4963C22.1884 16.0932 22.1884 16.6812 22.1884 17.2692C22.1998 17.2741 22.2111 17.2793 22.2227 17.2841C22.2534 17.2429 22.2846 17.2023 22.3149 17.1607C22.7447 16.5685 23.2384 16.0435 23.8944 15.6885C24.6271 15.2917 25.4185 15.1587 26.2421 15.1823C27.134 15.2081 27.9803 15.4072 28.7429 15.8834C29.7206 16.4939 30.3163 17.3872 30.6652 18.4587C30.9372 19.2937 31.0263 20.1552 31.0272 21.0275C31.0294 23.5379 31.0281 26.0486 31.0278 28.559C31.0278 28.6081 31.0232 28.6572 31.0202 28.7139Z" fill="#070707"/>
<path d="M15.2811 28.7207C13.8545 28.7207 12.4416 28.7207 11.0152 28.7207C11.0152 24.3125 11.0152 19.9067 11.0152 15.4922C12.4336 15.4922 13.8505 15.4922 15.2811 15.4922C15.2811 19.8964 15.2811 24.3019 15.2811 28.7207Z" fill="#070707"/>
<path fill-rule="evenodd" clip-rule="evenodd" d="M15.2505 28.6901V15.5228H11.0458V28.6901H15.2505ZM15.2811 28.7207V15.4922H11.0152V28.7207H15.2811Z" fill="#070707"/>
<path d="M13.3309 8.91407C14.6739 8.91225 15.6243 9.86008 15.6289 11.2059C15.6332 12.5375 14.6684 13.4799 13.2993 13.4805C11.963 13.4814 11.0101 12.5332 11.0077 11.2008C11.0052 9.86736 11.9719 8.91588 13.3309 8.91407Z" fill="#070707"/>
<path fill-rule="evenodd" clip-rule="evenodd" d="M14.9602 9.57629C14.5604 9.17755 13.995 8.94377 13.3309 8.94467C11.9883 8.94647 11.0359 9.88476 11.0383 11.2007C11.0407 12.5162 11.9798 13.4508 13.2993 13.4499C13.9767 13.4496 14.5522 13.2164 14.9577 12.8204C15.3632 12.4245 15.6004 11.8641 15.5983 11.206C15.596 10.5405 15.36 9.97504 14.9602 9.57629ZM15.6289 11.2059C15.6243 9.86008 14.6739 8.91225 13.3309 8.91407C11.9719 8.91588 11.0052 9.86736 11.0077 11.2008C11.0101 12.5332 11.963 13.4814 13.2993 13.4805C14.6684 13.4799 15.6332 12.5375 15.6289 11.2059Z" fill="#070707"/>
<path d="M11.6154 0.00961026C5.22115 0.00961026 0 5.22925 0 11.6216V28.4052C0 34.788 5.22115 39.998 11.6154 39.998H28.4038C34.7885 39.998 40 34.7784 40 28.386V11.612C40 5.21964 34.7885 0 28.3942 0H11.6154V0.00961026ZM11.6154 3.08565H28.3942C33.125 3.08565 36.9231 6.88262 36.9231 11.6216V28.3956C36.9231 33.1346 33.125 36.9316 28.4038 36.9316H11.6154C6.875 36.9316 3.07692 33.1346 3.07692 28.4149V11.6312C3.08654 6.88262 6.88462 3.08565 11.6154 3.08565Z" fill="#070707"/>
</svg>
