<svg width="40" height="40" viewBox="0 0 40 40" fill="none" xmlns="http://www.w3.org/2000/svg">
<path d="M11.6154 0.00961026C5.22115 0.00961026 0 5.22925 0 11.6216V28.4052C0 34.788 5.22115 39.998 11.6154 39.998H28.4038C34.7885 39.998 40 34.7784 40 28.386V11.612C40 5.21964 34.7885 0 28.3942 0H11.6154V0.00961026ZM11.6154 3.08565H28.3942C33.125 3.08565 36.9231 6.88262 36.9231 11.6216V28.3956C36.9231 33.1346 33.125 36.9316 28.4038 36.9316H11.6154C6.875 36.9316 3.07692 33.1346 3.07692 28.4149V11.6312C3.08654 6.88262 6.88462 3.08565 11.6154 3.08565Z" fill="#070707"/>
<path fill-rule="evenodd" clip-rule="evenodd" d="M11.6154 0.00961026C5.22115 0.00961026 0 5.22925 0 11.6216V28.4052C0 34.788 5.22115 39.998 11.6154 39.998H28.4038C34.7885 39.998 40 34.7784 40 28.386V11.612C40 5.21964 34.7885 0 28.3942 0H11.6154V0.00961026ZM28.3942 3.08565H11.6154C6.88462 3.08565 3.08654 6.88262 3.07692 11.6312V28.4149C3.07692 33.1346 6.875 36.9316 11.6154 36.9316H28.4038C33.125 36.9316 36.9231 33.1346 36.9231 28.3956V11.6216C36.9231 6.88262 33.125 3.08565 28.3942 3.08565Z" fill="#070707"/>
<path fill-rule="evenodd" clip-rule="evenodd" d="M6.85938 11.5469H14.1406C16.8635 11.5469 19.0781 13.7615 19.0781 16.4844C19.0781 17.8596 18.5122 19.1045 17.6026 20C18.5122 20.8955 19.0781 22.1404 19.0781 23.5156C19.0781 26.2385 16.8635 28.4531 14.1406 28.4531H6.85938V11.5469ZM9.70312 14.3906V18.5781H14.1406C15.295 18.5781 16.2344 17.6387 16.2344 16.4844C16.2344 15.33 15.295 14.3906 14.1406 14.3906H9.70312ZM9.70312 21.4219V25.6094H14.1406C15.295 25.6094 16.2344 24.67 16.2344 23.5156C16.2344 22.3613 15.295 21.4219 14.1406 21.4219H9.70312Z" fill="#070707"/>
<path fill-rule="evenodd" clip-rule="evenodd" d="M20.9219 22.3438C20.9219 18.9748 23.6623 16.2344 27.0312 16.2344C30.4002 16.2344 33.1406 18.9748 33.1406 22.3438V23.7656H29.9974L32.4476 25.1831L32.3224 25.3995C31.2329 27.2834 29.2058 28.4531 27.0312 28.4531C23.6623 28.4531 20.9219 25.7127 20.9219 22.3438ZM29.9822 23.7656H24.0917C24.6215 24.8564 25.7405 25.6094 27.0312 25.6094C28.1931 25.6094 29.278 24.9833 29.8608 23.9755L29.9822 23.7656ZM24.0917 20.9219H29.9708C29.441 19.8311 28.322 19.0781 27.0312 19.0781C25.7405 19.0781 24.6215 19.8311 24.0917 20.9219Z" fill="#070707"/>
<path fill-rule="evenodd" clip-rule="evenodd" d="M22.0938 11.5469H31.9688V14.3906H22.0938V11.5469Z" fill="#070707"/>
</svg>
