<svg width="40" height="40" viewBox="0 0 40 40" fill="none" xmlns="http://www.w3.org/2000/svg">
<path d="M11.6154 0.00961026C5.22115 0.00961026 0 5.22925 0 11.6216V28.4052C0 34.788 5.22115 39.998 11.6154 39.998H28.4038C34.7885 39.998 40 34.7784 40 28.386V11.612C40 5.21964 34.7885 0 28.3942 0H11.6154V0.00961026ZM11.6154 3.08565H28.3942C33.125 3.08565 36.9231 6.88262 36.9231 11.6216V28.3956C36.9231 33.1346 33.125 36.9316 28.4038 36.9316H11.6154C6.875 36.9316 3.07692 33.1346 3.07692 28.4149V11.6312C3.08654 6.88262 6.88462 3.08565 11.6154 3.08565ZM32.3173 6.16168C31.4615 6.16168 30.7788 6.84418 30.7788 7.6997C30.7788 8.55522 31.4615 9.23772 32.3173 9.23772C33.1731 9.23772 33.8558 8.55522 33.8558 7.6997C33.8558 6.84418 33.1731 6.16168 32.3173 6.16168ZM20.0096 9.23772C14.0865 9.23772 9.24039 14.0825 9.24039 20.0038C9.24039 25.9252 14.0865 30.7699 20.0096 30.7699C25.9327 30.7699 30.7788 25.9252 30.7788 20.0038C30.7788 14.0825 25.9327 9.23772 20.0096 9.23772ZM20.0096 12.3137C24.2788 12.3137 27.7019 15.7358 27.7019 20.0038C27.7019 24.2718 24.2788 27.6939 20.0096 27.6939C15.7404 27.6939 12.3173 24.2718 12.3173 20.0038C12.3173 15.7358 15.7404 12.3137 20.0096 12.3137Z" fill="#070707"/>
<path fill-rule="evenodd" clip-rule="evenodd" d="M0 11.6216C0 5.22925 5.22115 0.00961026 11.6154 0.00961026V0H28.3942C34.7885 0 40 5.21964 40 11.612V28.386C40 34.7784 34.7885 39.998 28.4038 39.998H11.6154C5.22115 39.998 0 34.788 0 28.4052V11.6216ZM11.6154 3.08565H28.3942C33.125 3.08565 36.9231 6.88262 36.9231 11.6216V28.3956C36.9231 33.1346 33.125 36.9316 28.4038 36.9316H11.6154C6.875 36.9316 3.07692 33.1346 3.07692 28.4149V11.6312C3.08654 6.88262 6.88462 3.08565 11.6154 3.08565ZM30.7788 7.6997C30.7788 6.84418 31.4615 6.16168 32.3173 6.16168C33.1731 6.16168 33.8558 6.84418 33.8558 7.6997C33.8558 8.55522 33.1731 9.23772 32.3173 9.23772C31.4615 9.23772 30.7788 8.55522 30.7788 7.6997ZM9.24039 20.0038C9.24039 14.0825 14.0865 9.23772 20.0096 9.23772C25.9327 9.23772 30.7788 14.0825 30.7788 20.0038C30.7788 25.9252 25.9327 30.7699 20.0096 30.7699C14.0865 30.7699 9.24039 25.9252 9.24039 20.0038ZM27.7019 20.0038C27.7019 15.7358 24.2788 12.3137 20.0096 12.3137C15.7404 12.3137 12.3173 15.7358 12.3173 20.0038C12.3173 24.2718 15.7404 27.6939 20.0096 27.6939C24.2788 27.6939 27.7019 24.2718 27.7019 20.0038Z" fill="#070707"/>
</svg>
